solid Mesh.part
facet normal -8.40485 3.633 -4.12419
outer loop
vertex 406.831 145.714 16.9129
vertex 405.716 146.236 19.6453
vertex 407.046 149.312 19.6453
endloop
endfacet
facet normal -8.60707 3.12391 -4.12421
outer loop
vertex 408.19 148.857 16.9129
vertex 407.046 149.312 19.6453
vertex 408.189 152.462 19.6453
endloop
endfacet
facet normal -3.12009 1.34865 -1.26885
outer loop
vertex 405.716 146.236 19.6453
vertex 405.371 146.397 20.6667
vertex 406.691 149.452 20.6667
endloop
endfacet
facet normal -3.19517 1.15968 -1.26888
outer loop
vertex 407.046 149.312 19.6453
vertex 406.691 149.452 20.6667
vertex 407.827 152.581 20.6667
endloop
endfacet
facet normal -3.2588 0.966497 -1.26888
outer loop
vertex 408.189 152.462 19.6453
vertex 407.827 152.581 20.6667
vertex 408.773 155.772 20.6667
endloop
endfacet
facet normal -3.31076 0.769888 -1.26881
outer loop
vertex 409.142 155.674 19.6453
vertex 408.773 155.772 20.6667
vertex 409.527 159.013 20.6667
endloop
endfacet
facet normal -3.35087 0.570504 -1.26887
outer loop
vertex 409.901 158.938 19.6453
vertex 409.527 159.013 20.6667
vertex 410.085 162.294 20.6667
endloop
endfacet
facet normal -3.37902 0.369095 -1.26882
outer loop
vertex 410.463 162.241 19.6453
vertex 410.085 162.294 20.6667
vertex 410.447 165.603 20.6667
endloop
endfacet
facet normal -3.39502 0.166345 -1.2689
outer loop
vertex 410.827 165.573 19.6453
vertex 410.447 165.603 20.6667
vertex 410.61 168.927 20.6667
endloop
endfacet
facet normal -1.08905 0.010379 -0.40671
outer loop
vertex 411.001 169.986 19.6453
vertex 410.991 168.92 19.6453
vertex 410.61 168.927 20.6667
endloop
endfacet
facet normal -1.08163 0.0102855 -0.403964
outer loop
vertex 410.61 168.927 20.6667
vertex 410.62 169.986 20.6667
vertex 411.001 169.986 19.6453
endloop
endfacet
facet normal -3.4183 0.167467 -1.27754
outer loop
vertex 410.61 168.927 20.6667
vertex 410.991 168.92 19.6453
vertex 410.827 165.573 19.6453
endloop
endfacet
facet normal -3.40217 0.371651 -1.2776
outer loop
vertex 410.447 165.603 20.6667
vertex 410.827 165.573 19.6453
vertex 410.463 162.241 19.6453
endloop
endfacet
facet normal -3.37386 0.5744 -1.27751
outer loop
vertex 410.085 162.294 20.6667
vertex 410.463 162.241 19.6453
vertex 409.901 158.938 19.6453
endloop
endfacet
facet normal -3.33346 0.775186 -1.27757
outer loop
vertex 409.527 159.013 20.6667
vertex 409.901 158.938 19.6453
vertex 409.142 155.674 19.6453
endloop
endfacet
facet normal -3.28115 0.973105 -1.27752
outer loop
vertex 408.773 155.772 20.6667
vertex 409.142 155.674 19.6453
vertex 408.189 152.462 19.6453
endloop
endfacet
facet normal -3.21707 1.16763 -1.27758
outer loop
vertex 407.827 152.581 20.6667
vertex 408.189 152.462 19.6453
vertex 407.046 149.312 19.6453
endloop
endfacet
facet normal -3.14148 1.35791 -1.27757
outer loop
vertex 406.691 149.452 20.6667
vertex 407.046 149.312 19.6453
vertex 405.716 146.236 19.6453
endloop
endfacet
facet normal -8.58964 3.71289 -4.21488
outer loop
vertex 407.046 149.312 19.6453
vertex 408.19 148.857 16.9129
vertex 406.831 145.714 16.9129
endloop
endfacet
facet normal -6.66293 -1.44748 -2.80798
outer loop
vertex 409.202 181.408 21.2973
vertex 409.202 179.892 22.0786
vertex 407.35 181.556 25.6175
endloop
endfacet
facet normal -6.66295 -1.23817 -2.90637
outer loop
vertex 409.202 179.892 22.0786
vertex 409.202 178.324 22.7468
vertex 407.35 179.724 26.398
endloop
endfacet
facet normal -6.66291 -1.02223 -2.98915
outer loop
vertex 409.202 178.324 22.7468
vertex 409.202 176.711 23.2986
vertex 407.35 177.84 27.0424
endloop
endfacet
facet normal -6.66292 -0.800804 -3.05592
outer loop
vertex 409.202 176.711 23.2986
vertex 409.202 175.061 23.7308
vertex 407.35 175.913 27.5472
endloop
endfacet
facet normal -6.66294 -0.57509 -3.10633
outer loop
vertex 409.202 175.061 23.7308
vertex 409.202 173.385 24.0412
vertex 407.35 173.955 27.9097
endloop
endfacet
facet normal -6.66289 -0.346291 -3.14006
outer loop
vertex 409.202 173.385 24.0412
vertex 409.202 171.69 24.2281
vertex 407.35 171.976 28.1279
endloop
endfacet
facet normal -6.66293 -0.115636 -3.15699
outer loop
vertex 409.202 171.69 24.2281
vertex 409.202 169.986 24.2905
vertex 407.35 169.986 28.2008
endloop
endfacet
facet normal -6.66293 0.115636 -3.15699
outer loop
vertex 409.202 169.986 24.2905
vertex 409.202 168.282 24.2281
vertex 407.35 167.996 28.1279
endloop
endfacet
facet normal -6.66295 0.346291 -3.14009
outer loop
vertex 409.202 168.282 24.2281
vertex 409.202 166.587 24.0412
vertex 407.35 166.017 27.9097
endloop
endfacet
facet normal -6.66294 0.57509 -3.10633
outer loop
vertex 409.202 166.587 24.0412
vertex 409.202 164.911 23.7308
vertex 407.35 164.058 27.5472
endloop
endfacet
facet normal -6.66291 0.800804 -3.05592
outer loop
vertex 409.202 164.911 23.7308
vertex 409.202 163.261 23.2986
vertex 407.35 162.132 27.0424
endloop
endfacet
facet normal -6.66291 1.02223 -2.98915
outer loop
vertex 409.202 163.261 23.2986
vertex 409.202 161.648 22.7468
vertex 407.35 160.248 26.398
endloop
endfacet
facet normal -6.66295 1.23817 -2.90637
outer loop
vertex 409.202 161.648 22.7468
vertex 409.202 160.079 22.0786
vertex 407.35 158.416 25.6175
endloop
endfacet
facet normal -6.66292 1.44748 -2.80798
outer loop
vertex 409.202 160.079 22.0786
vertex 409.202 158.564 21.2973
vertex 407.35 156.646 24.7051
endloop
endfacet
facet normal -7.49045 -2.72386 -3.26268
outer loop
vertex 407.35 188.171 21.2285
vertex 407.35 186.642 22.5047
vertex 405.215 188.947 25.4805
endloop
endfacet
facet normal -7.49043 -2.47787 -3.45321
outer loop
vertex 407.35 186.642 22.5047
vertex 407.35 185.024 23.6657
vertex 405.215 187.105 26.8021
endloop
endfacet
facet normal -7.49042 -2.2186 -3.62523
outer loop
vertex 407.35 185.024 23.6657
vertex 407.35 183.326 24.7051
vertex 405.215 185.172 27.9854
endloop
endfacet
facet normal -7.49045 -1.94743 -3.77784
outer loop
vertex 407.35 183.326 24.7051
vertex 407.35 181.556 25.6175
vertex 405.215 183.157 29.0241
endloop
endfacet
facet normal -7.49047 -1.66583 -3.9102
outer loop
vertex 407.35 181.556 25.6175
vertex 407.35 179.724 26.398
vertex 405.215 181.071 29.9126
endloop
endfacet
facet normal -7.49045 -1.3753 -4.02158
outer loop
vertex 407.35 179.724 26.398
vertex 407.35 177.84 27.0424
vertex 405.215 178.926 30.6461
endloop
endfacet
facet normal -7.49043 -1.07739 -4.1114
outer loop
vertex 407.35 177.84 27.0424
vertex 407.35 175.913 27.5472
vertex 405.215 176.733 31.2207
endloop
endfacet
facet normal -7.49043 -0.773719 -4.17921
outer loop
vertex 407.35 175.913 27.5472
vertex 407.35 173.955 27.9097
vertex 405.215 174.504 31.6334
endloop
endfacet
facet normal -7.49047 -0.4659 -4.22464
outer loop
vertex 407.35 173.955 27.9097
vertex 407.35 171.976 28.1279
vertex 405.215 172.251 31.8819
endloop
endfacet
facet normal -7.49041 -0.155577 -4.24737
outer loop
vertex 407.35 171.976 28.1279
vertex 407.35 169.986 28.2008
vertex 405.215 169.986 31.9649
endloop
endfacet
facet normal -7.49047 0.155577 -4.24741
outer loop
vertex 407.35 169.986 28.2008
vertex 407.35 167.996 28.1279
vertex 405.215 167.72 31.8819
endloop
endfacet
facet normal -7.49042 0.4659 -4.22461
outer loop
vertex 407.35 167.996 28.1279
vertex 407.35 166.017 27.9097
vertex 405.215 165.467 31.6334
endloop
endfacet
facet normal -7.49048 0.773719 -4.17924
outer loop
vertex 407.35 166.017 27.9097
vertex 407.35 164.058 27.5472
vertex 405.215 163.238 31.2207
endloop
endfacet
facet normal -7.49042 1.07739 -4.1114
outer loop
vertex 407.35 164.058 27.5472
vertex 407.35 162.132 27.0424
vertex 405.215 161.045 30.6461
endloop
endfacet
facet normal -7.49045 1.3753 -4.02158
outer loop
vertex 407.35 162.132 27.0424
vertex 407.35 160.248 26.398
vertex 405.215 158.9 29.9126
endloop
endfacet
facet normal -7.49046 1.66583 -3.9102
outer loop
vertex 407.35 160.248 26.398
vertex 407.35 158.416 25.6175
vertex 405.215 156.815 29.0241
endloop
endfacet
facet normal -7.49041 1.94743 -3.77781
outer loop
vertex 407.35 158.416 25.6175
vertex 407.35 156.646 24.7051
vertex 405.215 154.8 27.9854
endloop
endfacet
facet normal -7.49048 2.2186 -3.62526
outer loop
vertex 407.35 156.646 24.7051
vertex 407.35 154.947 23.6657
vertex 405.215 152.866 26.8021
endloop
endfacet
facet normal -7.49044 2.47787 -3.45321
outer loop
vertex 407.35 154.947 23.6657
vertex 407.35 153.33 22.5047
vertex 405.215 151.025 25.4805
endloop
endfacet
facet normal -7.49043 2.72386 -3.26268
outer loop
vertex 407.35 153.33 22.5047
vertex 407.35 151.801 21.2285
vertex 405.215 149.285 24.0278
endloop
endfacet
facet normal -8.14968 -4.06645 -3.62973
outer loop
vertex 405.215 193.826 20.7604
vertex 405.215 192.316 22.4515
vertex 402.811 194.911 24.9438
endloop
endfacet
facet normal -8.14963 -3.79001 -3.91746
outer loop
vertex 405.215 192.316 22.4515
vertex 405.215 190.687 24.0278
vertex 402.811 193.092 26.7031
endloop
endfacet
facet normal -8.14965 -3.49325 -4.18427
outer loop
vertex 405.215 190.687 24.0278
vertex 405.215 188.947 25.4805
vertex 402.811 191.15 28.3247
endloop
endfacet
facet normal -8.14966 -3.17777 -4.42862
outer loop
vertex 405.215 188.947 25.4805
vertex 405.215 187.105 26.8021
vertex 402.811 189.094 29.7998
endloop
endfacet
facet normal -8.14968 -2.84527 -4.64924
outer loop
vertex 405.215 187.105 26.8021
vertex 405.215 185.172 27.9854
vertex 402.811 186.936 31.1206
endloop
endfacet
facet normal -8.14968 -2.49751 -4.84494
outer loop
vertex 405.215 185.172 27.9854
vertex 405.215 183.157 29.0241
vertex 402.811 184.687 32.2799
endloop
endfacet
facet normal -8.14961 -2.13636 -5.01463
outer loop
vertex 405.215 183.157 29.0241
vertex 405.215 181.071 29.9126
vertex 402.811 182.359 33.2716
endloop
endfacet
facet normal -8.1497 -1.76377 -5.15754
outer loop
vertex 405.215 181.071 29.9126
vertex 405.215 178.926 30.6461
vertex 402.811 179.965 34.0904
endloop
endfacet
facet normal -8.14962 -1.38172 -5.27271
outer loop
vertex 405.215 178.926 30.6461
vertex 405.215 176.733 31.2207
vertex 402.811 177.517 34.7318
endloop
endfacet
facet normal -8.14967 -0.992265 -5.3597
outer loop
vertex 405.215 176.733 31.2207
vertex 405.215 174.504 31.6334
vertex 402.811 175.029 35.1924
endloop
endfacet
facet normal -8.14967 -0.597491 -5.41793
outer loop
vertex 405.215 174.504 31.6334
vertex 405.215 172.251 31.8819
vertex 402.811 172.514 35.4698
endloop
endfacet
facet normal -8.14963 -0.199524 -5.4471
outer loop
vertex 405.215 172.251 31.8819
vertex 405.215 169.986 31.9649
vertex 402.811 169.986 35.5624
endloop
endfacet
facet normal -8.14969 0.199524 -5.44713
outer loop
vertex 405.215 169.986 31.9649
vertex 405.215 167.72 31.8819
vertex 402.811 167.457 35.4698
endloop
endfacet
facet normal -8.14967 0.597491 -5.41793
outer loop
vertex 405.215 167.72 31.8819
vertex 405.215 165.467 31.6334
vertex 402.811 164.942 35.1924
endloop
endfacet
facet normal -8.14962 0.992265 -5.35966
outer loop
vertex 405.215 165.467 31.6334
vertex 405.215 163.238 31.2207
vertex 402.811 162.454 34.7318
endloop
endfacet
facet normal -8.14968 1.38172 -5.27274
outer loop
vertex 405.215 163.238 31.2207
vertex 405.215 161.045 30.6461
vertex 402.811 160.007 34.0904
endloop
endfacet
facet normal -8.14968 1.76377 -5.15754
outer loop
vertex 405.215 161.045 30.6461
vertex 405.215 158.9 29.9126
vertex 402.811 157.613 33.2716
endloop
endfacet
facet normal -8.14962 2.13636 -5.01463
outer loop
vertex 405.215 158.9 29.9126
vertex 405.215 156.815 29.0241
vertex 402.811 155.285 32.2799
endloop
endfacet
facet normal -8.14967 2.49751 -4.84494
outer loop
vertex 405.215 156.815 29.0241
vertex 405.215 154.8 27.9854
vertex 402.811 153.036 31.1206
endloop
endfacet
facet normal -8.14967 2.84527 -4.64924
outer loop
vertex 405.215 154.8 27.9854
vertex 405.215 152.866 26.8021
vertex 402.811 150.878 29.7998
endloop
endfacet
facet normal -8.14966 3.17777 -4.42862
outer loop
vertex 405.215 152.866 26.8021
vertex 405.215 151.025 25.4805
vertex 402.811 148.822 28.3247
endloop
endfacet
facet normal -8.14964 3.49325 -4.18423
outer loop
vertex 405.215 151.025 25.4805
vertex 405.215 149.285 24.0278
vertex 402.811 146.879 26.7031
endloop
endfacet
facet normal -8.14967 3.79001 -3.91749
outer loop
vertex 405.215 149.285 24.0278
vertex 405.215 147.655 22.4515
vertex 402.811 145.061 24.9438
endloop
endfacet
facet normal -8.62639 -4.68284 -4.84032
outer loop
vertex 402.811 194.911 24.9438
vertex 402.811 193.092 26.7031
vertex 400.149 195.373 29.2402
endloop
endfacet
facet normal -8.62646 -4.31617 -5.16998
outer loop
vertex 402.811 193.092 26.7031
vertex 402.811 191.15 28.3247
vertex 400.149 193.239 31.0219
endloop
endfacet
facet normal -8.62642 -3.92637 -5.47187
outer loop
vertex 402.811 191.15 28.3247
vertex 402.811 189.094 29.7998
vertex 400.149 190.98 32.6426
endloop
endfacet
facet normal -8.62638 -3.51554 -5.74444
outer loop
vertex 402.811 189.094 29.7998
vertex 402.811 186.936 31.1206
vertex 400.149 188.609 34.0937
endloop
endfacet
facet normal -8.62646 -3.08585 -5.98629
outer loop
vertex 402.811 186.936 31.1206
vertex 402.811 184.687 32.2799
vertex 400.149 186.138 35.3675
endloop
endfacet
facet normal -8.62644 -2.63963 -6.19599
outer loop
vertex 402.811 184.687 32.2799
vertex 402.811 182.359 33.2716
vertex 400.149 183.581 36.4571
endloop
endfacet
facet normal -8.62636 -2.17926 -6.37246
outer loop
vertex 402.811 182.359 33.2716
vertex 402.811 179.965 34.0904
vertex 400.149 180.95 37.3567
endloop
endfacet
facet normal -8.62642 -1.70721 -6.51485
outer loop
vertex 402.811 179.965 34.0904
vertex 402.811 177.517 34.7318
vertex 400.149 178.261 38.0614
endloop
endfacet
facet normal -8.62646 -1.22602 -6.62232
outer loop
vertex 402.811 177.517 34.7318
vertex 402.811 175.029 35.1924
vertex 400.149 175.527 38.5675
endloop
endfacet
facet normal -8.62642 -0.73825 -6.69425
outer loop
vertex 402.811 175.029 35.1924
vertex 402.811 172.514 35.4698
vertex 400.149 172.764 38.8722
endloop
endfacet
facet normal -8.62636 -0.24652 -6.73027
outer loop
vertex 402.811 172.514 35.4698
vertex 402.811 169.986 35.5624
vertex 400.149 169.986 38.974
endloop
endfacet
facet normal -8.62641 0.24652 -6.73031
outer loop
vertex 402.811 169.986 35.5624
vertex 402.811 167.457 35.4698
vertex 400.149 167.208 38.8722
endloop
endfacet
facet normal -8.62643 0.73825 -6.69425
outer loop
vertex 402.811 167.457 35.4698
vertex 402.811 164.942 35.1924
vertex 400.149 164.444 38.5675
endloop
endfacet
facet normal -8.62645 1.22602 -6.62232
outer loop
vertex 402.811 164.942 35.1924
vertex 402.811 162.454 34.7318
vertex 400.149 161.711 38.0614
endloop
endfacet
facet normal -8.62637 1.70721 -6.51481
outer loop
vertex 402.811 162.454 34.7318
vertex 402.811 160.007 34.0904
vertex 400.149 159.022 37.3567
endloop
endfacet
facet normal -8.62642 2.17926 -6.3725
outer loop
vertex 402.811 160.007 34.0904
vertex 402.811 157.613 33.2716
vertex 400.149 156.391 36.4571
endloop
endfacet
facet normal -8.62643 2.63963 -6.19599
outer loop
vertex 402.811 157.613 33.2716
vertex 402.811 155.285 32.2799
vertex 400.149 153.834 35.3675
endloop
endfacet
facet normal -8.62642 3.08585 -5.98625
outer loop
vertex 402.811 155.285 32.2799
vertex 402.811 153.036 31.1206
vertex 400.149 151.363 34.0937
endloop
endfacet
facet normal -8.62644 3.51554 -5.74448
outer loop
vertex 402.811 153.036 31.1206
vertex 402.811 150.878 29.7998
vertex 400.149 148.991 32.6426
endloop
endfacet
facet normal -8.62643 3.92637 -5.47187
outer loop
vertex 402.811 150.878 29.7998
vertex 402.811 148.822 28.3247
vertex 400.149 146.733 31.0219
endloop
endfacet
facet normal -8.62643 4.31617 -5.16998
outer loop
vertex 402.811 148.822 28.3247
vertex 402.811 146.879 26.7031
vertex 400.149 144.599 29.2402
endloop
endfacet
facet normal -8.91044 -5.17495 -6.19861
outer loop
vertex 400.149 195.373 29.2402
vertex 400.149 193.239 31.0219
vertex 397.244 195.203 33.5575
endloop
endfacet
facet normal -8.91047 -4.7076 -6.56062
outer loop
vertex 400.149 193.239 31.0219
vertex 400.149 190.98 32.6426
vertex 397.244 192.754 35.3152
endloop
endfacet
facet normal -8.91048 -4.21502 -6.88744
outer loop
vertex 400.149 190.98 32.6426
vertex 400.149 188.609 34.0937
vertex 397.244 190.182 36.8889
endloop
endfacet
facet normal -8.91046 -3.69984 -7.17734
outer loop
vertex 400.149 188.609 34.0937
vertex 400.149 186.138 35.3675
vertex 397.244 187.502 38.2703
endloop
endfacet
facet normal -8.91042 -3.16483 -7.42877
outer loop
vertex 400.149 186.138 35.3675
vertex 400.149 183.581 36.4571
vertex 397.244 184.729 39.4519
endloop
endfacet
facet normal -8.9105 -2.61286 -7.64045
outer loop
vertex 400.149 183.581 36.4571
vertex 400.149 180.95 37.3567
vertex 397.244 181.876 40.4274
endloop
endfacet
facet normal -8.91044 -2.0469 -7.81108
outer loop
vertex 400.149 180.95 37.3567
vertex 400.149 178.261 38.0614
vertex 397.244 178.96 41.1916
endloop
endfacet
facet normal -8.91046 -1.46996 -7.93992
outer loop
vertex 400.149 178.261 38.0614
vertex 400.149 175.527 38.5675
vertex 397.244 175.995 41.7405
endloop
endfacet
facet normal -8.91045 -0.885129 -8.02617
outer loop
vertex 400.149 175.527 38.5675
vertex 400.149 172.764 38.8722
vertex 397.244 172.999 42.0709
endloop
endfacet
facet normal -8.91046 -0.295575 -8.06943
outer loop
vertex 400.149 172.764 38.8722
vertex 400.149 169.986 38.974
vertex 397.244 169.986 42.1813
endloop
endfacet
facet normal -8.91051 0.295575 -8.06947
outer loop
vertex 400.149 169.986 38.974
vertex 400.149 167.208 38.8722
vertex 397.244 166.973 42.0709
endloop
endfacet
facet normal -8.91044 0.885129 -8.02617
outer loop
vertex 400.149 167.208 38.8722
vertex 400.149 164.444 38.5675
vertex 397.244 163.976 41.7405
endloop
endfacet
facet normal -8.91047 1.46996 -7.93992
outer loop
vertex 400.149 164.444 38.5675
vertex 400.149 161.711 38.0614
vertex 397.244 161.012 41.1916
endloop
endfacet
facet normal -8.91045 2.0469 -7.81108
outer loop
vertex 400.149 161.711 38.0614
vertex 400.149 159.022 37.3567
vertex 397.244 158.096 40.4274
endloop
endfacet
facet normal -8.91044 2.61286 -7.6404
outer loop
vertex 400.149 159.022 37.3567
vertex 400.149 156.391 36.4571
vertex 397.244 155.243 39.4519
endloop
endfacet
facet normal -8.91049 3.16483 -7.42882
outer loop
vertex 400.149 156.391 36.4571
vertex 400.149 153.834 35.3675
vertex 397.244 152.469 38.2703
endloop
endfacet
facet normal -8.91047 3.69984 -7.17734
outer loop
vertex 400.149 153.834 35.3675
vertex 400.149 151.363 34.0937
vertex 397.244 149.79 36.8889
endloop
endfacet
facet normal -8.91048 4.21502 -6.88744
outer loop
vertex 400.149 151.363 34.0937
vertex 400.149 148.991 32.6426
vertex 397.244 147.218 35.3152
endloop
endfacet
facet normal -8.91046 4.7076 -6.56062
outer loop
vertex 400.149 148.991 32.6426
vertex 400.149 146.733 31.0219
vertex 397.244 144.769 33.5575
endloop
endfacet
facet normal -8.99568 -5.50459 -7.67132
outer loop
vertex 397.244 195.203 33.5575
vertex 397.244 192.754 35.3152
vertex 394.113 194.404 37.8032
endloop
endfacet
facet normal -8.99568 -4.92863 -8.05348
outer loop
vertex 397.244 192.754 35.3152
vertex 397.244 190.182 36.8889
vertex 394.113 191.646 39.491
endloop
endfacet
facet normal -8.99569 -4.32623 -8.39248
outer loop
vertex 397.244 190.182 36.8889
vertex 397.244 187.502 38.2703
vertex 394.113 188.772 40.9725
endloop
endfacet
facet normal -8.99573 -3.70063 -8.68652
outer loop
vertex 397.244 187.502 38.2703
vertex 397.244 184.729 39.4519
vertex 394.113 185.798 42.2398
endloop
endfacet
facet normal -8.99567 -3.05523 -8.93392
outer loop
vertex 397.244 184.729 39.4519
vertex 397.244 181.876 40.4274
vertex 394.113 182.738 43.2861
endloop
endfacet
facet normal -8.99571 -2.39344 -9.13353
outer loop
vertex 397.244 181.876 40.4274
vertex 397.244 178.96 41.1916
vertex 394.113 179.61 44.1057
endloop
endfacet
facet normal -8.99571 -1.71882 -9.28416
outer loop
vertex 397.244 178.96 41.1916
vertex 397.244 175.995 41.7405
vertex 394.113 176.431 44.6943
endloop
endfacet
facet normal -8.99572 -1.03499 -9.38504
outer loop
vertex 397.244 175.995 41.7405
vertex 397.244 172.999 42.0709
vertex 394.113 173.217 45.0488
endloop
endfacet
facet normal -8.99566 -0.345615 -9.43555
outer loop
vertex 397.244 172.999 42.0709
vertex 397.244 169.986 42.1813
vertex 394.113 169.986 45.1671
endloop
endfacet
facet normal -8.9957 0.345615 -9.4356
outer loop
vertex 397.244 169.986 42.1813
vertex 397.244 166.973 42.0709
vertex 394.113 166.755 45.0488
endloop
endfacet
facet normal -8.99572 1.03499 -9.38504
outer loop
vertex 397.244 166.973 42.0709
vertex 397.244 163.976 41.7405
vertex 394.113 163.541 44.6943
endloop
endfacet
facet normal -8.99571 1.71882 -9.28416
outer loop
vertex 397.244 163.976 41.7405
vertex 397.244 161.012 41.1916
vertex 394.113 160.361 44.1057
endloop
endfacet
facet normal -8.9957 2.39344 -9.13353
outer loop
vertex 397.244 161.012 41.1916
vertex 397.244 158.096 40.4274
vertex 394.113 157.234 43.2861
endloop
endfacet
facet normal -8.99568 3.05523 -8.93392
outer loop
vertex 397.244 158.096 40.4274
vertex 397.244 155.243 39.4519
vertex 394.113 154.174 42.2398
endloop
endfacet
facet normal -8.99571 3.70063 -8.68652
outer loop
vertex 397.244 155.243 39.4519
vertex 397.244 152.469 38.2703
vertex 394.113 151.199 40.9725
endloop
endfacet
facet normal -8.99569 4.32623 -8.39248
outer loop
vertex 397.244 152.469 38.2703
vertex 397.244 149.79 36.8889
vertex 394.113 148.325 39.491
endloop
endfacet
facet normal -8.9957 4.92863 -8.05348
outer loop
vertex 397.244 149.79 36.8889
vertex 397.244 147.218 35.3152
vertex 394.113 145.567 37.8032
endloop
endfacet
facet normal -8.8803 -5.64111 -9.21772
outer loop
vertex 394.113 194.404 37.8032
vertex 394.113 191.646 39.491
vertex 390.77 192.994 41.8861
endloop
endfacet
facet normal -8.8803 -4.95164 -9.60572
outer loop
vertex 394.113 191.646 39.491
vertex 394.113 188.772 40.9725
vertex 390.77 189.941 43.4598
endloop
endfacet
facet normal -8.88032 -4.23563 -9.94226
outer loop
vertex 394.113 188.772 40.9725
vertex 394.113 185.798 42.2398
vertex 390.77 186.782 44.8059
endloop
endfacet
facet normal -8.88028 -3.4969 -10.2255
outer loop
vertex 394.113 185.798 42.2398
vertex 394.113 182.738 43.2861
vertex 390.77 183.532 45.9173
endloop
endfacet
facet normal -8.88027 -2.73945 -10.4539
outer loop
vertex 394.113 182.738 43.2861
vertex 394.113 179.61 44.1057
vertex 390.77 180.209 46.7879
endloop
endfacet
facet normal -8.8803 -1.96729 -10.6263
outer loop
vertex 394.113 179.61 44.1057
vertex 394.113 176.431 44.6943
vertex 390.77 176.832 47.4132
endloop
endfacet
facet normal -8.88031 -1.18461 -10.7418
outer loop
vertex 394.113 176.431 44.6943
vertex 394.113 173.217 45.0488
vertex 390.77 173.418 47.7897
endloop
endfacet
facet normal -8.88027 -0.395585 -10.7996
outer loop
vertex 394.113 173.217 45.0488
vertex 394.113 169.986 45.1671
vertex 390.77 169.986 47.9154
endloop
endfacet
facet normal -8.8803 0.395585 -10.7997
outer loop
vertex 394.113 169.986 45.1671
vertex 394.113 166.755 45.0488
vertex 390.77 166.554 47.7897
endloop
endfacet
facet normal -8.88031 1.18461 -10.7418
outer loop
vertex 394.113 166.755 45.0488
vertex 394.113 163.541 44.6943
vertex 390.77 163.14 47.4132
endloop
endfacet
facet normal -8.88029 1.96729 -10.6263
outer loop
vertex 394.113 163.541 44.6943
vertex 394.113 160.361 44.1057
vertex 390.77 159.762 46.7879
endloop
endfacet
facet normal -8.88028 2.73945 -10.4539
outer loop
vertex 394.113 160.361 44.1057
vertex 394.113 157.234 43.2861
vertex 390.77 156.44 45.9173
endloop
endfacet
facet normal -8.88029 3.4969 -10.2255
outer loop
vertex 394.113 157.234 43.2861
vertex 394.113 154.174 42.2398
vertex 390.77 153.19 44.8059
endloop
endfacet
facet normal -8.88032 4.23563 -9.94226
outer loop
vertex 394.113 154.174 42.2398
vertex 394.113 151.199 40.9725
vertex 390.77 150.03 43.4598
endloop
endfacet
facet normal -8.8803 4.95164 -9.60572
outer loop
vertex 394.113 151.199 40.9725
vertex 394.113 148.325 39.491
vertex 390.77 146.978 41.8861
endloop
endfacet
facet normal -8.56669 -6.33716 -10.355
outer loop
vertex 390.77 195.924 40.0932
vertex 390.77 192.994 41.8861
vertex 387.236 194.218 44.0612
endloop
endfacet
facet normal -8.56671 -5.5626 -10.7909
outer loop
vertex 390.77 192.994 41.8861
vertex 390.77 189.941 43.4598
vertex 387.236 191.003 45.7186
endloop
endfacet
facet normal -8.5667 -4.75823 -11.169
outer loop
vertex 390.77 189.941 43.4598
vertex 390.77 186.782 44.8059
vertex 387.236 187.675 47.1364
endloop
endfacet
facet normal -8.56675 -3.92837 -11.4872
outer loop
vertex 390.77 186.782 44.8059
vertex 390.77 183.532 45.9173
vertex 387.236 184.252 48.3069
endloop
endfacet
facet normal -8.56673 3.92837 -11.4872
outer loop
vertex 390.77 156.44 45.9173
vertex 390.77 153.19 44.8059
vertex 387.236 152.297 47.1364
endloop
endfacet
facet normal -8.56671 4.75823 -11.169
outer loop
vertex 390.77 153.19 44.8059
vertex 390.77 150.03 43.4598
vertex 387.236 148.969 45.7186
endloop
endfacet
facet normal -8.56671 5.5626 -10.7909
outer loop
vertex 390.77 150.03 43.4598
vertex 390.77 146.978 41.8861
vertex 387.236 145.753 44.0612
endloop
endfacet
facet normal -1.62591 -0.750574 -0.669965
outer loop
vertex 405.215 192.316 22.4515
vertex 405.215 193.826 20.7604
vertex 405.659 192.948 20.6669
endloop
endfacet
facet normal -5.75678 -2.33281 -2.41125
outer loop
vertex 405.215 190.687 24.0278
vertex 405.215 192.316 22.4515
vertex 406.695 190.508 20.6674
endloop
endfacet
facet normal -1.53863 -0.564286 -0.556369
outer loop
vertex 406.695 190.508 20.6674
vertex 407.703 187.757 20.6696
vertex 407.35 188.171 21.2285
endloop
endfacet
facet normal -1.48957 -0.487607 -0.584063
outer loop
vertex 407.35 186.642 22.5047
vertex 407.35 188.171 21.2285
vertex 407.732 187.673 20.6696
endloop
endfacet
facet normal -4.65989 -1.33745 -1.86389
outer loop
vertex 407.35 185.024 23.6657
vertex 407.35 186.642 22.5047
vertex 408.502 185.186 20.6694
endloop
endfacet
facet normal -7.64695 -1.90059 -3.10559
outer loop
vertex 407.35 183.326 24.7051
vertex 407.35 185.024 23.6657
vertex 409.178 182.567 20.6673
endloop
endfacet
facet normal -4.22302 -0.659937 -1.54907
outer loop
vertex 410.19 176.888 20.6664
vertex 409.202 178.324 22.7468
vertex 409.202 179.892 22.0786
endloop
endfacet
facet normal -5.47192 -0.546958 -2.08723
outer loop
vertex 410.468 174.097 20.6658
vertex 409.202 175.061 23.7308
vertex 409.202 176.711 23.2986
endloop
endfacet
facet normal -6.11337 -0.262131 -2.37692
outer loop
vertex 410.605 171.282 20.6659
vertex 409.202 171.69 24.2281
vertex 409.202 173.385 24.0412
endloop
endfacet
facet normal -6.09516 -0.087533 -2.38974
outer loop
vertex 409.202 169.986 24.2905
vertex 409.202 171.69 24.2281
vertex 410.605 171.282 20.6659
endloop
endfacet
facet normal -10.1133 0.25841 -3.90106
outer loop
vertex 410.62 169.986 20.6667
vertex 410.548 167.147 20.6652
vertex 409.202 168.282 24.2281
endloop
endfacet
facet normal -8.72006 0.670088 -3.33796
outer loop
vertex 410.548 167.147 20.6652
vertex 410.328 164.301 20.6667
vertex 409.202 164.911 23.7308
endloop
endfacet
facet normal -5.84618 0.751469 -2.20626
outer loop
vertex 410.328 164.301 20.6667
vertex 409.967 161.492 20.6662
vertex 409.202 161.648 22.7468
endloop
endfacet
facet normal -1.79421 0.325201 -0.66647
outer loop
vertex 409.967 161.492 20.6662
vertex 409.452 158.646 20.6667
vertex 409.202 158.564 21.2973
endloop
endfacet
facet normal -6.03333 1.46952 -2.45271
outer loop
vertex 407.35 156.646 24.7051
vertex 409.216 157.569 20.6671
vertex 408.851 156.074 20.6684
endloop
endfacet
facet normal -4.59867 1.12139 -1.86918
outer loop
vertex 407.35 156.646 24.7051
vertex 409.202 158.564 21.2973
vertex 409.216 157.569 20.6671
endloop
endfacet
facet normal -5.24479 1.50532 -2.03933
outer loop
vertex 407.35 153.33 22.5047
vertex 408.851 156.074 20.6684
vertex 408.03 153.216 20.6699
endloop
endfacet
facet normal -4.5554 1.72544 -1.92232
outer loop
vertex 405.215 149.285 24.0278
vertex 407.35 151.801 21.2285
vertex 407.16 150.677 20.6686
endloop
endfacet
facet normal -4.43549 1.76422 -1.84853
outer loop
vertex 405.215 147.655 22.4515
vertex 407.16 150.677 20.6686
vertex 406.173 148.192 20.6667
endloop
endfacet
facet normal -0.205369 0.0927981 -0.071652
outer loop
vertex 405.173 145.981 20.6676
vertex 405.215 146.146 20.7604
vertex 406.173 148.192 20.6667
endloop
endfacet
facet normal -3.60268 1.61928 -1.44538
outer loop
vertex 406.173 148.192 20.6667
vertex 405.215 146.146 20.7604
vertex 405.215 147.655 22.4515
endloop
endfacet
facet normal -7.66767 3.06564 -3.16876
outer loop
vertex 407.16 150.677 20.6686
vertex 405.215 147.655 22.4515
vertex 405.215 149.285 24.0278
endloop
endfacet
facet normal -1.42039 0.4871 -0.497225
outer loop
vertex 407.16 150.677 20.6686
vertex 407.35 151.801 21.2285
vertex 408.03 153.216 20.6699
endloop
endfacet
facet normal -2.66003 0.86893 -1.04082
outer loop
vertex 408.03 153.216 20.6699
vertex 407.35 151.801 21.2285
vertex 407.35 153.33 22.5047
endloop
endfacet
facet normal -6.15764 1.74353 -2.42982
outer loop
vertex 408.851 156.074 20.6684
vertex 407.35 153.33 22.5047
vertex 407.35 154.947 23.6657
endloop
endfacet
facet normal -6.26236 1.5611 -2.55089
outer loop
vertex 408.851 156.074 20.6684
vertex 407.35 154.947 23.6657
vertex 407.35 156.646 24.7051
endloop
endfacet
facet normal -0.67947 0.148517 -0.249068
outer loop
vertex 409.216 157.569 20.6671
vertex 409.202 158.564 21.2973
vertex 409.452 158.646 20.6667
endloop
endfacet
facet normal -3.24387 0.597738 -1.15956
outer loop
vertex 409.202 158.564 21.2973
vertex 409.202 160.079 22.0786
vertex 409.967 161.492 20.6662
endloop
endfacet
facet normal -3.15932 0.511303 -1.20018
outer loop
vertex 409.967 161.492 20.6662
vertex 409.202 160.079 22.0786
vertex 409.202 161.648 22.7468
endloop
endfacet
facet normal -4.81997 0.621297 -1.81677
outer loop
vertex 409.202 161.648 22.7468
vertex 409.202 163.261 23.2986
vertex 410.328 164.301 20.6667
endloop
endfacet
facet normal -4.79053 0.486718 -1.85735
outer loop
vertex 410.328 164.301 20.6667
vertex 409.202 163.261 23.2986
vertex 409.202 164.911 23.7308
endloop
endfacet
facet normal -5.83386 0.417582 -2.25556
outer loop
vertex 409.202 164.911 23.7308
vertex 409.202 166.587 24.0412
vertex 410.548 167.147 20.6652
endloop
endfacet
facet normal -5.82625 0.251448 -2.28007
outer loop
vertex 410.548 167.147 20.6652
vertex 409.202 166.587 24.0412
vertex 409.202 168.282 24.2281
endloop
endfacet
facet normal -6.17469 0.0884567 -2.41496
outer loop
vertex 409.202 168.282 24.2281
vertex 409.202 169.986 24.2905
vertex 410.62 169.986 20.6667
endloop
endfacet
facet normal -4.69693 -0.0547743 -1.837
outer loop
vertex 410.605 171.282 20.6659
vertex 410.62 169.986 20.6667
vertex 409.202 169.986 24.2905
endloop
endfacet
facet normal -9.50279 -0.462645 -3.66038
outer loop
vertex 409.202 173.385 24.0412
vertex 410.468 174.097 20.6658
vertex 410.605 171.282 20.6659
endloop
endfacet
facet normal -5.43789 -0.392793 -2.12166
outer loop
vertex 410.468 174.097 20.6658
vertex 409.202 173.385 24.0412
vertex 409.202 175.061 23.7308
endloop
endfacet
facet normal -7.34565 -0.730996 -2.80518
outer loop
vertex 409.202 176.711 23.2986
vertex 410.19 176.888 20.6664
vertex 410.468 174.097 20.6658
endloop
endfacet
facet normal -4.14862 -0.544839 -1.59319
outer loop
vertex 410.19 176.888 20.6664
vertex 409.202 176.711 23.2986
vertex 409.202 178.324 22.7468
endloop
endfacet
facet normal -4.05371 -0.614708 -1.5269
outer loop
vertex 409.202 179.892 22.0786
vertex 409.755 179.759 20.6664
vertex 410.19 176.888 20.6664
endloop
endfacet
facet normal -2.24479 -0.431417 -0.83691
outer loop
vertex 409.755 179.759 20.6664
vertex 409.202 179.892 22.0786
vertex 409.202 181.408 21.2973
endloop
endfacet
facet normal -1.77033 -0.363259 -0.599822
outer loop
vertex 409.755 179.759 20.6664
vertex 409.202 181.408 21.2973
vertex 409.178 182.567 20.6673
endloop
endfacet
facet normal -5.15765 -1.25024 -2.10058
outer loop
vertex 409.178 182.567 20.6673
vertex 409.202 181.408 21.2973
vertex 407.35 183.326 24.7051
endloop
endfacet
facet normal -7.84738 -2.02418 -3.12653
outer loop
vertex 408.502 185.186 20.6694
vertex 409.178 182.567 20.6673
vertex 407.35 185.024 23.6657
endloop
endfacet
facet normal -4.56422 -1.41285 -1.74401
outer loop
vertex 407.732 187.673 20.6696
vertex 408.502 185.186 20.6694
vertex 407.35 186.642 22.5047
endloop
endfacet
facet normal -0.0469652 -0.0157912 -0.0180435
outer loop
vertex 407.732 187.673 20.6696
vertex 407.35 188.171 21.2285
vertex 407.703 187.757 20.6696
endloop
endfacet
facet normal -7.95507 -3.02931 -3.34236
outer loop
vertex 406.695 190.508 20.6674
vertex 407.35 188.171 21.2285
vertex 405.215 190.687 24.0278
endloop
endfacet
facet normal -4.3536 -1.8494 -1.73717
outer loop
vertex 405.659 192.948 20.6669
vertex 406.695 190.508 20.6674
vertex 405.215 192.316 22.4515
endloop
endfacet
facet normal -0.22391 -0.108074 -0.0479981
outer loop
vertex 405.659 192.948 20.6669
vertex 405.215 193.826 20.7604
vertex 404.495 195.359 20.6685
endloop
endfacet
facet normal -9.02247 5.85854 -11.365
outer loop
vertex 387.236 145.753 44.0612
vertex 387.236 148.969 45.7186
vertex 390.77 150.03 43.4598
endloop
endfacet
facet normal -9.02246 5.01136 -11.7632
outer loop
vertex 387.236 148.969 45.7186
vertex 387.236 152.297 47.1364
vertex 390.77 153.19 44.8059
endloop
endfacet
facet normal -9.02246 -4.13737 -12.0983
outer loop
vertex 387.236 184.252 48.3069
vertex 387.236 187.675 47.1364
vertex 390.77 186.782 44.8059
endloop
endfacet
facet normal -9.02247 -5.01136 -11.7632
outer loop
vertex 387.236 187.675 47.1364
vertex 387.236 191.003 45.7186
vertex 390.77 189.941 43.4598
endloop
endfacet
facet normal -9.02247 -5.85854 -11.365
outer loop
vertex 387.236 191.003 45.7186
vertex 387.236 194.218 44.0612
vertex 390.77 192.994 41.8861
endloop
endfacet
facet normal -9.43286 5.25974 -10.2034
outer loop
vertex 390.77 146.978 41.8861
vertex 390.77 150.03 43.4598
vertex 394.113 151.199 40.9725
endloop
endfacet
facet normal -9.43286 4.49917 -10.5609
outer loop
vertex 390.77 150.03 43.4598
vertex 390.77 153.19 44.8059
vertex 394.113 154.174 42.2398
endloop
endfacet
facet normal -9.43288 3.71449 -10.8618
outer loop
vertex 390.77 153.19 44.8059
vertex 390.77 156.44 45.9173
vertex 394.113 157.234 43.2861
endloop
endfacet
facet normal -9.43284 2.9099 -11.1044
outer loop
vertex 390.77 156.44 45.9173
vertex 390.77 159.762 46.7879
vertex 394.113 160.361 44.1057
endloop
endfacet
facet normal -9.43286 2.08971 -11.2875
outer loop
vertex 390.77 159.762 46.7879
vertex 390.77 163.14 47.4132
vertex 394.113 163.541 44.6943
endloop
endfacet
facet normal -9.43286 1.25832 -11.4102
outer loop
vertex 390.77 163.14 47.4132
vertex 390.77 166.554 47.7897
vertex 394.113 166.755 45.0488
endloop
endfacet
facet normal -9.43289 0.420204 -11.4717
outer loop
vertex 390.77 166.554 47.7897
vertex 390.77 169.986 47.9154
vertex 394.113 169.986 45.1671
endloop
endfacet
facet normal -9.43285 -0.420192 -11.4716
outer loop
vertex 390.77 169.986 47.9154
vertex 390.77 173.418 47.7897
vertex 394.113 173.217 45.0488
endloop
endfacet
facet normal -9.43287 -1.25833 -11.4102
outer loop
vertex 390.77 173.418 47.7897
vertex 390.77 176.832 47.4132
vertex 394.113 176.431 44.6943
endloop
endfacet
facet normal -9.43285 -2.08971 -11.2875
outer loop
vertex 390.77 176.832 47.4132
vertex 390.77 180.209 46.7879
vertex 394.113 179.61 44.1057
endloop
endfacet
facet normal -9.43285 -2.9099 -11.1044
outer loop
vertex 390.77 180.209 46.7879
vertex 390.77 183.532 45.9173
vertex 394.113 182.738 43.2861
endloop
endfacet
facet normal -9.43289 -3.71449 -10.8618
outer loop
vertex 390.77 183.532 45.9173
vertex 390.77 186.782 44.8059
vertex 394.113 185.798 42.2398
endloop
endfacet
facet normal -9.43286 -4.49917 -10.5609
outer loop
vertex 390.77 186.782 44.8059
vertex 390.77 189.941 43.4598
vertex 394.113 188.772 40.9725
endloop
endfacet
facet normal -9.43287 -5.25974 -10.2034
outer loop
vertex 390.77 189.941 43.4598
vertex 390.77 192.994 41.8861
vertex 394.113 191.646 39.491
endloop
endfacet
facet normal -9.43282 -5.99214 -9.79125
outer loop
vertex 390.77 192.994 41.8861
vertex 390.77 195.924 40.0932
vertex 394.113 194.404 37.8032
endloop
endfacet
facet normal -9.64791 5.28596 -8.6374
outer loop
vertex 394.113 145.567 37.8032
vertex 394.113 148.325 39.491
vertex 397.244 149.79 36.8889
endloop
endfacet
facet normal -9.64791 4.63989 -9.00097
outer loop
vertex 394.113 148.325 39.491
vertex 394.113 151.199 40.9725
vertex 397.244 152.469 38.2703
endloop
endfacet
facet normal -9.64795 3.96896 -9.31632
outer loop
vertex 394.113 151.199 40.9725
vertex 394.113 154.174 42.2398
vertex 397.244 155.243 39.4519
endloop
endfacet
facet normal -9.64791 3.27674 -9.58169
outer loop
vertex 394.113 154.174 42.2398
vertex 394.113 157.234 43.2861
vertex 397.244 158.096 40.4274
endloop
endfacet
facet normal -9.64792 2.56698 -9.79573
outer loop
vertex 394.113 157.234 43.2861
vertex 394.113 160.361 44.1057
vertex 397.244 161.012 41.1916
endloop
endfacet
facet normal -9.64793 1.84343 -9.9573
outer loop
vertex 394.113 160.361 44.1057
vertex 394.113 163.541 44.6943
vertex 397.244 163.976 41.7405
endloop
endfacet
facet normal -9.64794 1.11003 -10.0655
outer loop
vertex 394.113 163.541 44.6943
vertex 394.113 166.755 45.0488
vertex 397.244 166.973 42.0709
endloop
endfacet
facet normal -9.64795 0.37068 -10.1197
outer loop
vertex 394.113 166.755 45.0488
vertex 394.113 169.986 45.1671
vertex 397.244 169.986 42.1813
endloop
endfacet
facet normal -9.6479 -0.37068 -10.1197
outer loop
vertex 394.113 169.986 45.1671
vertex 394.113 173.217 45.0488
vertex 397.244 172.999 42.0709
endloop
endfacet
facet normal -9.64794 -1.11003 -10.0655
outer loop
vertex 394.113 173.217 45.0488
vertex 394.113 176.431 44.6943
vertex 397.244 175.995 41.7405
endloop
endfacet
facet normal -9.64793 -1.84343 -9.9573
outer loop
vertex 394.113 176.431 44.6943
vertex 394.113 179.61 44.1057
vertex 397.244 178.96 41.1916
endloop
endfacet
facet normal -9.64791 -2.56698 -9.79573
outer loop
vertex 394.113 179.61 44.1057
vertex 394.113 182.738 43.2861
vertex 397.244 181.876 40.4274
endloop
endfacet
facet normal -9.64792 -3.27674 -9.58169
outer loop
vertex 394.113 182.738 43.2861
vertex 394.113 185.798 42.2398
vertex 397.244 184.729 39.4519
endloop
endfacet
facet normal -9.64793 -3.96896 -9.31632
outer loop
vertex 394.113 185.798 42.2398
vertex 394.113 188.772 40.9725
vertex 397.244 187.502 38.2703
endloop
endfacet
facet normal -9.64791 -4.63989 -9.00097
outer loop
vertex 394.113 188.772 40.9725
vertex 394.113 191.646 39.491
vertex 397.244 190.182 36.8889
endloop
endfacet
facet normal -9.64792 -5.28596 -8.6374
outer loop
vertex 394.113 191.646 39.491
vertex 394.113 194.404 37.8032
vertex 397.244 192.754 35.3152
endloop
endfacet
facet normal -9.66304 5.1052 -7.11472
outer loop
vertex 397.244 144.769 33.5575
vertex 397.244 147.218 35.3152
vertex 400.149 148.991 32.6426
endloop
endfacet
facet normal -9.66306 4.57103 -7.46915
outer loop
vertex 397.244 147.218 35.3152
vertex 397.244 149.79 36.8889
vertex 400.149 151.363 34.0937
endloop
endfacet
facet normal -9.66306 4.01233 -7.78356
outer loop
vertex 397.244 149.79 36.8889
vertex 397.244 152.469 38.2703
vertex 400.149 153.834 35.3675
endloop
endfacet
facet normal -9.66308 3.43213 -8.05626
outer loop
vertex 397.244 152.469 38.2703
vertex 397.244 155.243 39.4519
vertex 400.149 156.391 36.4571
endloop
endfacet
facet normal -9.66303 2.83356 -8.28571
outer loop
vertex 397.244 155.243 39.4519
vertex 397.244 158.096 40.4274
vertex 400.149 159.022 37.3567
endloop
endfacet
facet normal -9.66306 2.21978 -8.47084
outer loop
vertex 397.244 158.096 40.4274
vertex 397.244 161.012 41.1916
vertex 400.149 161.711 38.0614
endloop
endfacet
facet normal -9.66305 1.59411 -8.61054
outer loop
vertex 397.244 161.012 41.1916
vertex 397.244 163.976 41.7405
vertex 400.149 164.444 38.5675
endloop
endfacet
facet normal -9.66307 0.959898 -8.7041
outer loop
vertex 397.244 163.976 41.7405
vertex 397.244 166.973 42.0709
vertex 400.149 167.208 38.8722
endloop
endfacet
facet normal -9.66306 0.320538 -8.75099
outer loop
vertex 397.244 166.973 42.0709
vertex 397.244 169.986 42.1813
vertex 400.149 169.986 38.974
endloop
endfacet
facet normal -9.66301 -0.320538 -8.75095
outer loop
vertex 397.244 169.986 42.1813
vertex 397.244 172.999 42.0709
vertex 400.149 172.764 38.8722
endloop
endfacet
facet normal -9.66306 -0.959898 -8.7041
outer loop
vertex 397.244 172.999 42.0709
vertex 397.244 175.995 41.7405
vertex 400.149 175.527 38.5675
endloop
endfacet
facet normal -9.66306 -1.59411 -8.61054
outer loop
vertex 397.244 175.995 41.7405
vertex 397.244 178.96 41.1916
vertex 400.149 178.261 38.0614
endloop
endfacet
facet normal -9.66306 -2.21978 -8.47084
outer loop
vertex 397.244 178.96 41.1916
vertex 397.244 181.876 40.4274
vertex 400.149 180.95 37.3567
endloop
endfacet
facet normal -9.66301 -2.83356 -8.28571
outer loop
vertex 397.244 181.876 40.4274
vertex 397.244 184.729 39.4519
vertex 400.149 183.581 36.4571
endloop
endfacet
facet normal -9.66308 -3.43213 -8.05626
outer loop
vertex 397.244 184.729 39.4519
vertex 397.244 187.502 38.2703
vertex 400.149 186.138 35.3675
endloop
endfacet
facet normal -9.66307 -4.01233 -7.78356
outer loop
vertex 397.244 187.502 38.2703
vertex 397.244 190.182 36.8889
vertex 400.149 188.609 34.0937
endloop
endfacet
facet normal -9.66305 -4.57103 -7.46915
outer loop
vertex 397.244 190.182 36.8889
vertex 397.244 192.754 35.3152
vertex 400.149 190.98 32.6426
endloop
endfacet
facet normal -9.66303 -5.1052 -7.11472
outer loop
vertex 397.244 192.754 35.3152
vertex 397.244 195.203 33.5575
vertex 400.149 193.239 31.0219
endloop
endfacet
facet normal -9.47792 4.74221 -5.68026
outer loop
vertex 400.149 144.599 29.2402
vertex 400.149 146.733 31.0219
vertex 402.811 148.822 28.3247
endloop
endfacet
facet normal -9.47793 4.31394 -6.012
outer loop
vertex 400.149 146.733 31.0219
vertex 400.149 148.991 32.6426
vertex 402.811 150.878 29.7998
endloop
endfacet
facet normal -9.47794 3.86255 -6.3115
outer loop
vertex 400.149 148.991 32.6426
vertex 400.149 151.363 34.0937
vertex 402.811 153.036 31.1206
endloop
endfacet
facet normal -9.47792 3.39045 -6.57715
outer loop
vertex 400.149 151.363 34.0937
vertex 400.149 153.834 35.3675
vertex 402.811 155.285 32.2799
endloop
endfacet
facet normal -9.47794 2.90018 -6.8076
outer loop
vertex 400.149 153.834 35.3675
vertex 400.149 156.391 36.4571
vertex 402.811 157.613 33.2716
endloop
endfacet
facet normal -9.47789 2.39437 -7.00149
outer loop
vertex 400.149 156.391 36.4571
vertex 400.149 159.022 37.3567
vertex 402.811 160.007 34.0904
endloop
endfacet
facet normal -9.47789 1.87573 -7.1579
outer loop
vertex 400.149 159.022 37.3567
vertex 400.149 161.711 38.0614
vertex 402.811 162.454 34.7318
endloop
endfacet
facet normal -9.47793 1.34704 -7.27597
outer loop
vertex 400.149 161.711 38.0614
vertex 400.149 164.444 38.5675
vertex 402.811 164.942 35.1924
endloop
endfacet
facet normal -9.4779 0.811112 -7.355
outer loop
vertex 400.149 164.444 38.5675
vertex 400.149 167.208 38.8722
vertex 402.811 167.457 35.4698
endloop
endfacet
facet normal -9.47796 0.270858 -7.39468
outer loop
vertex 400.149 167.208 38.8722
vertex 400.149 169.986 38.974
vertex 402.811 169.986 35.5624
endloop
endfacet
facet normal -9.47791 -0.270858 -7.39464
outer loop
vertex 400.149 169.986 38.974
vertex 400.149 172.764 38.8722
vertex 402.811 172.514 35.4698
endloop
endfacet
facet normal -9.4779 -0.811112 -7.355
outer loop
vertex 400.149 172.764 38.8722
vertex 400.149 175.527 38.5675
vertex 402.811 175.029 35.1924
endloop
endfacet
facet normal -9.47792 -1.34704 -7.27597
outer loop
vertex 400.149 175.527 38.5675
vertex 400.149 178.261 38.0614
vertex 402.811 177.517 34.7318
endloop
endfacet
facet normal -9.47788 -1.87573 -7.1579
outer loop
vertex 400.149 178.261 38.0614
vertex 400.149 180.95 37.3567
vertex 402.811 179.965 34.0904
endloop
endfacet
facet normal -9.47796 -2.39437 -7.00154
outer loop
vertex 400.149 180.95 37.3567
vertex 400.149 183.581 36.4571
vertex 402.811 182.359 33.2716
endloop
endfacet
facet normal -9.4779 -2.90018 -6.80756
outer loop
vertex 400.149 183.581 36.4571
vertex 400.149 186.138 35.3675
vertex 402.811 184.687 32.2799
endloop
endfacet
facet normal -9.4779 -3.39045 -6.57715
outer loop
vertex 400.149 186.138 35.3675
vertex 400.149 188.609 34.0937
vertex 402.811 186.936 31.1206
endloop
endfacet
facet normal -9.47793 -3.86255 -6.3115
outer loop
vertex 400.149 188.609 34.0937
vertex 400.149 190.98 32.6426
vertex 402.811 189.094 29.7998
endloop
endfacet
facet normal -9.47794 -4.31394 -6.012
outer loop
vertex 400.149 190.98 32.6426
vertex 400.149 193.239 31.0219
vertex 402.811 191.15 28.3247
endloop
endfacet
facet normal -9.47789 -4.74221 -5.68026
outer loop
vertex 400.149 193.239 31.0219
vertex 400.149 195.373 29.2402
vertex 402.811 193.092 26.7031
endloop
endfacet
facet normal -9.09648 4.23033 -4.37259
outer loop
vertex 402.811 145.061 24.9438
vertex 402.811 146.879 26.7031
vertex 405.215 149.285 24.0278
endloop
endfacet
facet normal -9.09649 3.8991 -4.67041
outer loop
vertex 402.811 146.879 26.7031
vertex 402.811 148.822 28.3247
vertex 405.215 151.025 25.4805
endloop
endfacet
facet normal -9.09647 3.54697 -4.94312
outer loop
vertex 402.811 148.822 28.3247
vertex 402.811 150.878 29.7998
vertex 405.215 152.866 26.8021
endloop
endfacet
facet normal -9.09649 3.17583 -5.18939
outer loop
vertex 402.811 150.878 29.7998
vertex 402.811 153.036 31.1206
vertex 405.215 154.8 27.9854
endloop
endfacet
facet normal -9.09647 2.78766 -5.4078
outer loop
vertex 402.811 153.036 31.1206
vertex 402.811 155.285 32.2799
vertex 405.215 156.815 29.0241
endloop
endfacet
facet normal -9.09648 2.38456 -5.59727
outer loop
vertex 402.811 155.285 32.2799
vertex 402.811 157.613 33.2716
vertex 405.215 158.9 29.9126
endloop
endfacet
facet normal -9.09649 1.96868 -5.75672
outer loop
vertex 402.811 157.613 33.2716
vertex 402.811 160.007 34.0904
vertex 405.215 161.045 30.6461
endloop
endfacet
facet normal -9.09644 1.54224 -5.88528
outer loop
vertex 402.811 160.007 34.0904
vertex 402.811 162.454 34.7318
vertex 405.215 163.238 31.2207
endloop
endfacet
facet normal -9.09652 1.10755 -5.9824
outer loop
vertex 402.811 162.454 34.7318
vertex 402.811 164.942 35.1924
vertex 405.215 165.467 31.6334
endloop
endfacet
facet normal -9.0965 0.666913 -6.04738
outer loop
vertex 402.811 164.942 35.1924
vertex 402.811 167.457 35.4698
vertex 405.215 167.72 31.8819
endloop
endfacet
facet normal -9.09649 0.222699 -6.07996
outer loop
vertex 402.811 167.457 35.4698
vertex 402.811 169.986 35.5624
vertex 405.215 169.986 31.9649
endloop
endfacet
facet normal -9.09644 -0.222699 -6.07992
outer loop
vertex 402.811 169.986 35.5624
vertex 402.811 172.514 35.4698
vertex 405.215 172.251 31.8819
endloop
endfacet
facet normal -9.09649 -0.666913 -6.04738
outer loop
vertex 402.811 172.514 35.4698
vertex 402.811 175.029 35.1924
vertex 405.215 174.504 31.6334
endloop
endfacet
facet normal -9.09652 -1.10755 -5.9824
outer loop
vertex 402.811 175.029 35.1924
vertex 402.811 177.517 34.7318
vertex 405.215 176.733 31.2207
endloop
endfacet
facet normal -9.09649 -1.54224 -5.88532
outer loop
vertex 402.811 177.517 34.7318
vertex 402.811 179.965 34.0904
vertex 405.215 178.926 30.6461
endloop
endfacet
facet normal -9.09643 -1.96868 -5.75668
outer loop
vertex 402.811 179.965 34.0904
vertex 402.811 182.359 33.2716
vertex 405.215 181.071 29.9126
endloop
endfacet
facet normal -9.09649 -2.38456 -5.59727
outer loop
vertex 402.811 182.359 33.2716
vertex 402.811 184.687 32.2799
vertex 405.215 183.157 29.0241
endloop
endfacet
facet normal -9.09653 -2.78766 -5.40784
outer loop
vertex 402.811 184.687 32.2799
vertex 402.811 186.936 31.1206
vertex 405.215 185.172 27.9854
endloop
endfacet
facet normal -9.09645 -3.17583 -5.18935
outer loop
vertex 402.811 186.936 31.1206
vertex 402.811 189.094 29.7998
vertex 405.215 187.105 26.8021
endloop
endfacet
facet normal -9.09646 -3.54697 -4.94312
outer loop
vertex 402.811 189.094 29.7998
vertex 402.811 191.15 28.3247
vertex 405.215 188.947 25.4805
endloop
endfacet
facet normal -9.0965 -3.8991 -4.67041
outer loop
vertex 402.811 191.15 28.3247
vertex 402.811 193.092 26.7031
vertex 405.215 190.687 24.0278
endloop
endfacet
facet normal -9.09646 -4.23033 -4.37259
outer loop
vertex 402.811 193.092 26.7031
vertex 402.811 194.911 24.9438
vertex 405.215 192.316 22.4515
endloop
endfacet
facet normal -8.52693 3.10079 -3.71414
outer loop
vertex 405.215 149.285 24.0278
vertex 405.215 151.025 25.4805
vertex 407.35 153.33 22.5047
endloop
endfacet
facet normal -8.52698 2.82076 -3.93107
outer loop
vertex 405.215 151.025 25.4805
vertex 405.215 152.866 26.8021
vertex 407.35 154.947 23.6657
endloop
endfacet
facet normal -8.52699 2.52561 -4.1269
outer loop
vertex 405.215 152.866 26.8021
vertex 405.215 154.8 27.9854
vertex 407.35 156.646 24.7051
endloop
endfacet
facet normal -8.52698 2.21692 -4.30062
outer loop
vertex 405.215 154.8 27.9854
vertex 405.215 156.815 29.0241
vertex 407.35 158.416 25.6175
endloop
endfacet
facet normal -8.52693 1.89634 -4.45125
outer loop
vertex 405.215 156.815 29.0241
vertex 405.215 158.9 29.9126
vertex 407.35 160.248 26.398
endloop
endfacet
facet normal -8.527 1.56561 -4.5781
outer loop
vertex 405.215 158.9 29.9126
vertex 405.215 161.045 30.6461
vertex 407.35 162.132 27.0424
endloop
endfacet
facet normal -8.52699 1.22649 -4.68036
outer loop
vertex 405.215 161.045 30.6461
vertex 405.215 163.238 31.2207
vertex 407.35 164.058 27.5472
endloop
endfacet
facet normal -8.52694 0.880786 -4.75752
outer loop
vertex 405.215 163.238 31.2207
vertex 405.215 165.467 31.6334
vertex 407.35 166.017 27.9097
endloop
endfacet
facet normal -8.52698 0.530364 -4.80923
outer loop
vertex 405.215 165.467 31.6334
vertex 405.215 167.72 31.8819
vertex 407.35 167.996 28.1279
endloop
endfacet
facet normal -8.527 0.177108 -4.83516
outer loop
vertex 405.215 167.72 31.8819
vertex 405.215 169.986 31.9649
vertex 407.35 169.986 28.2008
endloop
endfacet
facet normal -8.52694 -0.177108 -4.83513
outer loop
vertex 405.215 169.986 31.9649
vertex 405.215 172.251 31.8819
vertex 407.35 171.976 28.1279
endloop
endfacet
facet normal -8.52698 -0.530364 -4.80923
outer loop
vertex 405.215 172.251 31.8819
vertex 405.215 174.504 31.6334
vertex 407.35 173.955 27.9097
endloop
endfacet
facet normal -8.52699 -0.880786 -4.75755
outer loop
vertex 405.215 174.504 31.6334
vertex 405.215 176.733 31.2207
vertex 407.35 175.913 27.5472
endloop
endfacet
facet normal -8.52693 -1.22649 -4.68033
outer loop
vertex 405.215 176.733 31.2207
vertex 405.215 178.926 30.6461
vertex 407.35 177.84 27.0424
endloop
endfacet
facet normal -8.52701 -1.56561 -4.5781
outer loop
vertex 405.215 178.926 30.6461
vertex 405.215 181.071 29.9126
vertex 407.35 179.724 26.398
endloop
endfacet
facet normal -8.52692 -1.89634 -4.45125
outer loop
vertex 405.215 181.071 29.9126
vertex 405.215 183.157 29.0241
vertex 407.35 181.556 25.6175
endloop
endfacet
facet normal -8.52698 -2.21692 -4.30062
outer loop
vertex 405.215 183.157 29.0241
vertex 405.215 185.172 27.9854
vertex 407.35 183.326 24.7051
endloop
endfacet
facet normal -8.52698 -2.52561 -4.1269
outer loop
vertex 405.215 185.172 27.9854
vertex 405.215 187.105 26.8021
vertex 407.35 185.024 23.6657
endloop
endfacet
facet normal -8.52698 -2.82076 -3.93107
outer loop
vertex 405.215 187.105 26.8021
vertex 405.215 188.947 25.4805
vertex 407.35 186.642 22.5047
endloop
endfacet
facet normal -8.52698 -3.10079 -3.71417
outer loop
vertex 405.215 188.947 25.4805
vertex 405.215 190.687 24.0278
vertex 407.35 188.171 21.2285
endloop
endfacet
facet normal -7.78155 1.69051 -3.27941
outer loop
vertex 407.35 156.646 24.7051
vertex 407.35 158.416 25.6175
vertex 409.202 160.079 22.0786
endloop
endfacet
facet normal -7.78162 1.44606 -3.39433
outer loop
vertex 407.35 158.416 25.6175
vertex 407.35 160.248 26.398
vertex 409.202 161.648 22.7468
endloop
endfacet
facet normal -7.7816 1.19386 -3.49102
outer loop
vertex 407.35 160.248 26.398
vertex 407.35 162.132 27.0424
vertex 409.202 163.261 23.2986
endloop
endfacet
facet normal -7.78157 0.935255 -3.56899
outer loop
vertex 407.35 162.132 27.0424
vertex 407.35 164.058 27.5472
vertex 409.202 164.911 23.7308
endloop
endfacet
facet normal -7.78163 0.671643 -3.62788
outer loop
vertex 407.35 164.058 27.5472
vertex 407.35 166.017 27.9097
vertex 409.202 166.587 24.0412
endloop
endfacet
facet normal -7.78157 0.404434 -3.66726
outer loop
vertex 407.35 166.017 27.9097
vertex 407.35 167.996 28.1279
vertex 409.202 168.282 24.2281
endloop
endfacet
facet normal -7.78163 0.135052 -3.68705
outer loop
vertex 407.35 167.996 28.1279
vertex 407.35 169.986 28.2008
vertex 409.202 169.986 24.2905
endloop
endfacet
facet normal -7.78157 -0.135052 -3.68702
outer loop
vertex 407.35 169.986 28.2008
vertex 407.35 171.976 28.1279
vertex 409.202 171.69 24.2281
endloop
endfacet
facet normal -7.78162 -0.404434 -3.66729
outer loop
vertex 407.35 171.976 28.1279
vertex 407.35 173.955 27.9097
vertex 409.202 173.385 24.0412
endloop
endfacet
facet normal -7.78157 -0.671643 -3.62785
outer loop
vertex 407.35 173.955 27.9097
vertex 407.35 175.913 27.5472
vertex 409.202 175.061 23.7308
endloop
endfacet
facet normal -7.78157 -0.935255 -3.56899
outer loop
vertex 407.35 175.913 27.5472
vertex 407.35 177.84 27.0424
vertex 409.202 176.711 23.2986
endloop
endfacet
facet normal -7.7816 -1.19386 -3.49102
outer loop
vertex 407.35 177.84 27.0424
vertex 407.35 179.724 26.398
vertex 409.202 178.324 22.7468
endloop
endfacet
facet normal -7.78162 -1.44606 -3.39433
outer loop
vertex 407.35 179.724 26.398
vertex 407.35 181.556 25.6175
vertex 409.202 179.892 22.0786
endloop
endfacet
facet normal -7.78161 -1.69051 -3.27943
outer loop
vertex 407.35 181.556 25.6175
vertex 407.35 183.326 24.7051
vertex 409.202 181.408 21.2973
endloop
endfacet
facet normal -1.08162 -0.0102855 -0.403958
outer loop
vertex 411.001 169.986 19.6453
vertex 410.62 169.986 20.6667
vertex 410.61 171.045 20.6667
endloop
endfacet
facet normal -3.39504 -0.166345 -1.26884
outer loop
vertex 410.991 171.052 19.6453
vertex 410.61 171.045 20.6667
vertex 410.447 174.369 20.6667
endloop
endfacet
facet normal -3.379 -0.369095 -1.2689
outer loop
vertex 410.827 174.399 19.6453
vertex 410.447 174.369 20.6667
vertex 410.085 177.678 20.6667
endloop
endfacet
facet normal -3.35087 -0.570504 -1.26881
outer loop
vertex 410.463 177.73 19.6453
vertex 410.085 177.678 20.6667
vertex 409.527 180.958 20.6667
endloop
endfacet
facet normal -3.31077 -0.769888 -1.26888
outer loop
vertex 409.901 181.034 19.6453
vertex 409.527 180.958 20.6667
vertex 408.773 184.2 20.6667
endloop
endfacet
facet normal -3.25878 -0.966497 -1.2688
outer loop
vertex 409.142 184.298 19.6453
vertex 408.773 184.2 20.6667
vertex 407.827 187.391 20.6667
endloop
endfacet
facet normal -3.19517 -1.15968 -1.26888
outer loop
vertex 408.189 187.51 19.6453
vertex 407.827 187.391 20.6667
vertex 406.691 190.519 20.6667
endloop
endfacet
facet normal -3.12009 -1.34865 -1.26887
outer loop
vertex 407.046 190.66 19.6453
vertex 406.691 190.519 20.6667
vertex 405.371 193.574 20.6667
endloop
endfacet
facet normal -3.14148 -1.35791 -1.27755
outer loop
vertex 405.371 193.574 20.6667
vertex 405.716 193.736 19.6453
vertex 407.046 190.66 19.6453
endloop
endfacet
facet normal -3.21707 -1.16763 -1.27758
outer loop
vertex 406.691 190.519 20.6667
vertex 407.046 190.66 19.6453
vertex 408.189 187.51 19.6453
endloop
endfacet
facet normal -3.28115 -0.973105 -1.27758
outer loop
vertex 407.827 187.391 20.6667
vertex 408.189 187.51 19.6453
vertex 409.142 184.298 19.6453
endloop
endfacet
facet normal -3.33346 -0.775186 -1.2775
outer loop
vertex 408.773 184.2 20.6667
vertex 409.142 184.298 19.6453
vertex 409.901 181.034 19.6453
endloop
endfacet
facet normal -3.37386 -0.5744 -1.27757
outer loop
vertex 409.527 180.958 20.6667
vertex 409.901 181.034 19.6453
vertex 410.463 177.73 19.6453
endloop
endfacet
facet normal -3.40217 -0.371651 -1.27752
outer loop
vertex 410.085 177.678 20.6667
vertex 410.463 177.73 19.6453
vertex 410.827 174.399 19.6453
endloop
endfacet
facet normal -3.4183 -0.167467 -1.2776
outer loop
vertex 410.447 174.369 20.6667
vertex 410.827 174.399 19.6453
vertex 410.991 171.052 19.6453
endloop
endfacet
facet normal -1.08904 -0.010379 -0.406705
outer loop
vertex 410.61 171.045 20.6667
vertex 410.991 171.052 19.6453
vertex 411.001 169.986 19.6453
endloop
endfacet
endsolid Mesh.part
