ply
format ascii 1.0
comment Created by CloudCompare v2.12.4 (Kyiv)
comment Created 2022-12-03T00:21:33
obj_info Generated by CloudCompare!
element vertex 221
property float x
property float y
property float z
element face 350
property list uchar int vertex_indices
end_header
406.830994 145.714005 16.912901 
405.716003 146.235992 19.645300 
407.045990 149.311996 19.645300 
408.190002 148.856995 16.912901 
408.188995 152.462006 19.645300 
405.371002 146.397003 20.666700 
406.691010 149.451996 20.666700 
407.826996 152.580994 20.666700 
408.773010 155.772003 20.666700 
409.901001 158.938004 19.645300 
409.527008 159.013000 20.666700 
410.463013 162.240997 19.645300 
410.084991 162.294006 20.666700 
410.446991 165.602997 20.666700 
410.826996 165.572998 19.645300 
411.001007 169.985992 19.645300 
410.609985 168.927002 20.666700 
410.990997 168.919998 19.645300 
409.141998 155.673996 19.645300 
409.201996 179.891998 22.078600 
407.350006 179.723999 26.398001 
409.201996 175.061005 23.730801 
409.201996 171.690002 24.228100 
407.350006 171.975998 28.127899 
409.201996 169.985992 24.290501 
407.350006 164.057999 27.547199 
409.201996 163.261002 23.298599 
409.201996 160.078995 22.078600 
407.350006 158.416000 25.617500 
407.350006 156.645996 24.705099 
405.214996 185.171997 27.985399 
407.350006 175.912994 27.547199 
405.214996 176.733002 31.220699 
405.214996 169.985992 31.964899 
407.350006 167.996002 28.127899 
407.350006 166.016998 27.909700 
405.214996 158.899994 29.912600 
407.350006 153.330002 22.504700 
402.811005 194.910995 24.943800 
402.811005 189.093994 29.799801 
405.214996 183.156998 29.024099 
405.214996 172.251007 31.881901 
405.214996 165.466995 31.633400 
405.214996 154.800003 27.985399 
405.214996 147.654999 22.451500 
402.811005 175.029007 35.192402 
402.811005 172.514008 35.469799 
402.811005 169.985992 35.562401 
402.811005 167.457001 35.469799 
402.811005 164.942001 35.192402 
402.811005 162.453995 34.731800 
402.811005 160.007004 34.090401 
400.148987 156.391006 36.457100 
402.811005 157.613007 33.271599 
402.811005 155.285004 32.279900 
400.148987 151.363007 34.093700 
402.811005 148.822006 28.324699 
402.811005 146.878998 26.703100 
400.148987 144.598999 29.240200 
400.148987 186.138000 35.367500 
400.148987 183.580994 36.457100 
397.243988 184.729004 39.451900 
400.148987 178.261002 38.061401 
400.148987 167.207993 38.872200 
397.243988 147.218002 35.315201 
400.148987 146.733002 31.021900 
397.243988 144.768997 33.557499 
397.243988 192.753998 35.315201 
394.113007 191.645996 39.491001 
397.243988 175.994995 41.740501 
397.243988 169.985992 42.181301 
397.243988 161.011993 41.191601 
394.113007 145.567001 37.803200 
390.769989 183.531998 45.917301 
390.769989 176.832001 47.413200 
390.769989 173.417999 47.789700 
394.113007 169.985992 45.167099 
390.769989 166.554001 47.789700 
390.769989 163.139999 47.413200 
394.113007 151.199005 40.972500 
387.235992 194.218002 44.061199 
390.769989 192.994003 41.886101 
387.235992 191.003006 45.718601 
387.235992 187.675003 47.136398 
387.235992 152.296997 47.136398 
387.235992 148.968994 45.718601 
390.769989 146.977997 41.886101 
405.658997 192.947998 20.666901 
409.201996 173.384995 24.041201 
410.605011 171.281998 20.665899 
410.548004 167.147003 20.665199 
410.328003 164.300995 20.666700 
409.201996 164.910995 23.730801 
408.851013 156.074005 20.668400 
409.201996 158.563995 21.297300 
408.029999 153.216003 20.669901 
405.214996 149.285004 24.027800 
407.350006 151.800995 21.228500 
405.173004 145.981003 20.667601 
405.214996 146.145996 20.760401 
406.173004 148.192001 20.666700 
407.160004 150.677002 20.668600 
407.350006 154.947006 23.665701 
409.216003 157.569000 20.667101 
409.451996 158.645996 20.666700 
409.967010 161.492004 20.666201 
409.201996 166.587006 24.041201 
409.201996 168.281998 24.228100 
410.619995 169.985992 20.666700 
410.467987 174.097000 20.665800 
409.201996 176.710999 23.298599 
409.201996 178.324005 22.746799 
409.755005 179.759003 20.666401 
410.190002 176.888000 20.666401 
409.201996 181.408005 21.297300 
409.178009 182.567001 20.667299 
407.350006 185.024002 23.665701 
407.731995 187.673004 20.669600 
408.502014 185.186005 20.669399 
407.350006 186.641998 22.504700 
407.703003 187.757004 20.669600 
406.695007 190.507996 20.667400 
407.350006 188.171005 21.228500 
405.214996 192.315994 22.451500 
405.214996 193.826004 20.760401 
404.494995 195.358994 20.668501 
387.235992 145.753006 44.061199 
390.769989 150.029999 43.459801 
387.235992 184.251999 48.306900 
390.769989 189.940994 43.459801 
394.113007 154.173996 42.239799 
390.769989 153.190002 44.805901 
394.113007 157.233994 43.286098 
390.769989 156.440002 45.917301 
390.769989 159.761993 46.787899 
390.769989 169.985992 47.915401 
394.113007 173.216995 45.048801 
394.113007 176.431000 44.694302 
390.769989 180.209000 46.787899 
390.769989 186.781998 44.805901 
394.113007 185.798004 42.239799 
394.113007 188.772003 40.972500 
390.769989 195.923996 40.093201 
394.113007 148.324997 39.491001 
397.243988 158.095993 40.427399 
394.113007 160.360992 44.105701 
397.243988 163.975998 41.740501 
394.113007 163.541000 44.694302 
394.113007 166.755005 45.048801 
397.243988 178.960007 41.191601 
394.113007 179.610001 44.105701 
394.113007 182.738007 43.286098 
394.113007 194.404007 37.803200 
400.148987 148.990997 32.642601 
397.243988 149.789993 36.888901 
397.243988 152.468994 38.270302 
397.243988 155.242996 39.451900 
400.148987 159.022003 37.356701 
400.148987 161.710999 38.061401 
397.243988 166.973007 42.070900 
397.243988 172.998993 42.070900 
400.148987 175.526993 38.567501 
397.243988 181.876007 40.427399 
397.243988 187.501999 38.270302 
397.243988 190.182007 36.888901 
397.243988 195.203003 33.557499 
400.148987 193.238998 31.021900 
402.811005 153.035995 31.120600 
400.148987 153.834000 35.367500 
400.148987 164.444000 38.567501 
400.148987 169.985992 38.973999 
400.148987 172.764008 38.872200 
400.148987 180.949997 37.356701 
402.811005 179.964996 34.090401 
402.811005 186.936005 31.120600 
400.148987 188.608994 34.093700 
400.148987 190.979996 32.642601 
400.148987 195.373001 29.240200 
402.811005 193.091995 26.703100 
402.811005 145.061005 24.943800 
405.214996 152.865997 26.802099 
402.811005 150.878006 29.799801 
405.214996 156.815002 29.024099 
405.214996 163.238007 31.220699 
402.811005 177.516998 34.731800 
402.811005 182.358994 33.271599 
402.811005 184.686996 32.279900 
405.214996 187.104996 26.802099 
402.811005 191.149994 28.324699 
405.214996 151.024994 25.480499 
407.350006 160.248001 26.398001 
405.214996 161.044998 30.646099 
405.214996 167.720001 31.881901 
407.350006 173.955002 27.909700 
405.214996 174.503998 31.633400 
407.350006 177.839996 27.042400 
405.214996 178.925995 30.646099 
405.214996 181.070999 29.912600 
405.214996 188.947006 25.480499 
405.214996 190.686996 24.027800 
409.201996 161.647995 22.746799 
407.350006 162.132004 27.042400 
407.350006 169.985992 28.200800 
407.350006 181.556000 25.617500 
407.350006 183.326004 24.705099 
410.990997 171.052002 19.645300 
410.446991 174.369003 20.666700 
410.463013 177.729996 19.645300 
410.084991 177.677994 20.666700 
409.901001 181.033997 19.645300 
408.773010 184.199997 20.666700 
407.826996 187.391006 20.666700 
407.045990 190.660004 19.645300 
406.691010 190.518997 20.666700 
405.371002 193.574005 20.666700 
405.716003 193.735992 19.645300 
408.188995 187.509995 19.645300 
409.141998 184.298004 19.645300 
409.527008 180.957993 20.666700 
410.826996 174.399002 19.645300 
410.609985 171.044998 20.666700 
3 0 1 2 
3 3 2 4 
3 1 5 6 
3 2 6 7 
3 4 7 8 
3 18 8 10 
3 9 10 12 
3 11 12 13 
3 14 13 16 
3 15 17 16 
3 16 108 15 
3 16 17 14 
3 13 14 11 
3 12 11 9 
3 10 9 18 
3 8 18 4 
3 7 4 2 
3 6 2 1 
3 2 3 0 
3 114 19 203 
3 19 111 20 
3 111 110 195 
3 110 21 31 
3 21 88 193 
3 88 22 23 
3 22 24 202 
3 24 107 34 
3 107 106 35 
3 106 92 25 
3 92 26 201 
3 26 200 190 
3 200 27 28 
3 27 94 29 
3 122 119 198 
3 119 116 187 
3 116 204 30 
3 204 203 40 
3 203 20 197 
3 20 195 196 
3 195 31 32 
3 31 193 194 
3 193 23 41 
3 23 202 33 
3 202 34 192 
3 34 35 42 
3 35 25 183 
3 25 201 191 
3 201 190 36 
3 190 28 182 
3 28 29 43 
3 29 102 180 
3 102 37 189 
3 37 97 96 
3 124 123 38 
3 123 199 178 
3 199 198 188 
3 198 187 39 
3 187 30 174 
3 30 40 186 
3 40 197 185 
3 197 196 173 
3 196 32 184 
3 32 194 45 
3 194 41 46 
3 41 33 47 
3 33 192 48 
3 192 42 49 
3 42 183 50 
3 183 191 51 
3 191 36 53 
3 36 182 54 
3 182 43 167 
3 43 180 181 
3 180 189 56 
3 189 96 57 
3 96 44 179 
3 38 178 177 
3 178 188 166 
3 188 39 176 
3 39 174 175 
3 174 186 59 
3 186 185 60 
3 185 173 172 
3 173 184 62 
3 184 45 161 
3 45 46 171 
3 46 47 170 
3 47 48 63 
3 48 49 169 
3 49 50 158 
3 50 51 157 
3 51 53 52 
3 53 54 168 
3 54 167 55 
3 167 181 153 
3 181 56 65 
3 56 57 58 
3 177 166 165 
3 166 176 67 
3 176 175 164 
3 175 59 163 
3 59 60 61 
3 60 172 162 
3 172 62 149 
3 62 161 69 
3 161 171 160 
3 171 170 70 
3 170 63 159 
3 63 169 146 
3 169 158 71 
3 158 157 144 
3 157 52 156 
3 52 168 155 
3 168 55 154 
3 55 153 64 
3 153 65 66 
3 165 67 152 
3 67 164 68 
3 164 163 141 
3 163 61 140 
3 61 162 151 
3 162 149 150 
3 149 69 137 
3 69 160 136 
3 160 70 76 
3 70 159 148 
3 159 146 147 
3 146 71 145 
3 71 144 132 
3 144 156 130 
3 156 155 79 
3 155 154 143 
3 154 64 72 
3 152 68 81 
3 68 141 129 
3 141 140 139 
3 140 151 73 
3 151 150 138 
3 150 137 74 
3 137 136 75 
3 136 76 135 
3 76 148 77 
3 148 147 78 
3 147 145 134 
3 145 132 133 
3 132 130 131 
3 130 79 127 
3 79 143 86 
3 142 81 80 
3 81 129 82 
3 129 139 83 
3 139 73 128 
3 133 131 84 
3 131 127 85 
3 127 86 126 
3 123 124 87 
3 199 123 121 
3 121 120 122 
3 119 122 117 
3 116 119 118 
3 204 116 115 
3 113 111 19 
3 109 21 110 
3 89 22 88 
3 24 22 89 
3 108 90 107 
3 90 91 92 
3 91 105 200 
3 105 104 94 
3 29 103 93 
3 29 94 103 
3 37 93 95 
3 96 97 101 
3 44 101 100 
3 98 99 100 
3 100 99 44 
3 101 44 96 
3 101 97 95 
3 95 97 37 
3 93 37 102 
3 93 102 29 
3 103 94 104 
3 94 27 105 
3 105 27 200 
3 200 26 91 
3 91 26 92 
3 92 106 90 
3 90 106 107 
3 107 24 108 
3 89 108 24 
3 88 109 89 
3 109 88 21 
3 110 113 109 
3 113 110 111 
3 19 112 113 
3 112 19 114 
3 112 114 115 
3 115 114 204 
3 118 115 116 
3 117 118 119 
3 117 122 120 
3 121 122 199 
3 87 121 123 
3 87 124 125 
3 126 85 127 
3 85 84 131 
3 128 83 139 
3 83 82 129 
3 82 80 81 
3 86 127 79 
3 127 131 130 
3 131 133 132 
3 133 134 145 
3 134 78 147 
3 78 77 148 
3 77 135 76 
3 135 75 136 
3 75 74 137 
3 74 138 150 
3 138 73 151 
3 73 139 140 
3 139 129 141 
3 129 81 68 
3 81 142 152 
3 72 143 154 
3 143 79 155 
3 79 130 156 
3 130 132 144 
3 132 145 71 
3 145 147 146 
3 147 148 159 
3 148 76 70 
3 76 136 160 
3 136 137 69 
3 137 150 149 
3 150 151 162 
3 151 140 61 
3 140 141 163 
3 141 68 164 
3 68 152 67 
3 66 64 153 
3 64 154 55 
3 154 155 168 
3 155 156 52 
3 156 144 157 
3 144 71 158 
3 71 146 169 
3 146 159 63 
3 159 70 170 
3 70 160 171 
3 160 69 161 
3 69 149 62 
3 149 162 172 
3 162 61 60 
3 61 163 59 
3 163 164 175 
3 164 67 176 
3 67 165 166 
3 58 65 56 
3 65 153 181 
3 153 55 167 
3 55 168 54 
3 168 52 53 
3 52 157 51 
3 157 158 50 
3 158 169 49 
3 169 63 48 
3 63 170 47 
3 170 171 46 
3 171 161 45 
3 161 62 184 
3 62 172 173 
3 172 60 185 
3 60 59 186 
3 59 175 174 
3 175 176 39 
3 176 166 188 
3 166 177 178 
3 179 57 96 
3 57 56 189 
3 56 181 180 
3 181 167 43 
3 167 54 182 
3 54 53 36 
3 53 51 191 
3 51 50 183 
3 50 49 42 
3 49 48 192 
3 48 47 33 
3 47 46 41 
3 46 45 194 
3 45 184 32 
3 184 173 196 
3 173 185 197 
3 185 186 40 
3 186 174 30 
3 174 39 187 
3 39 188 198 
3 188 178 199 
3 178 38 123 
3 96 189 37 
3 189 180 102 
3 180 43 29 
3 43 182 28 
3 182 36 190 
3 36 191 201 
3 191 183 25 
3 183 42 35 
3 42 192 34 
3 192 33 202 
3 33 41 23 
3 41 194 193 
3 194 32 31 
3 32 196 195 
3 196 197 20 
3 197 40 203 
3 40 30 204 
3 30 187 116 
3 187 198 119 
3 198 199 122 
3 29 28 27 
3 28 190 200 
3 190 201 26 
3 201 25 92 
3 25 35 106 
3 35 34 107 
3 34 202 24 
3 202 23 22 
3 23 193 88 
3 193 31 21 
3 31 195 110 
3 195 20 111 
3 20 203 19 
3 203 204 114 
3 15 108 220 
3 205 220 206 
3 219 206 208 
3 207 208 218 
3 209 218 210 
3 217 210 211 
3 216 211 213 
3 212 213 214 
3 214 215 212 
3 213 212 216 
3 211 216 217 
3 210 217 209 
3 218 209 207 
3 208 207 219 
3 206 219 205 
3 220 205 15 
